<?xml version="1.0" encoding="UTF-8" standalone="no"?>
<!-- Created with Inkscape (http://www.inkscape.org/) -->

<svg
   xmlns:dc="http://purl.org/dc/elements/1.1/"
   xmlns:cc="http://creativecommons.org/ns#"
   xmlns:rdf="http://www.w3.org/1999/02/22-rdf-syntax-ns#"
   xmlns:svg="http://www.w3.org/2000/svg"
   xmlns="http://www.w3.org/2000/svg"
   xmlns:sodipodi="http://sodipodi.sourceforge.net/DTD/sodipodi-0.dtd"
   xmlns:inkscape="http://www.inkscape.org/namespaces/inkscape"
   version="1.1"
   id="svg3741"
   xml:space="preserve"
   width="800"
   height="800"
   viewBox="0 0 800 800"
   sodipodi:docname="swirl-halftone-pattern-3.svg"
   inkscape:version="0.92.4 (5da689c313, 2019-01-14)"><metadata
     id="metadata3747"><rdf:RDF><cc:Work
         rdf:about=""><dc:format>image/svg+xml</dc:format><dc:type
           rdf:resource="http://purl.org/dc/dcmitype/StillImage" /><dc:title></dc:title></cc:Work></rdf:RDF></metadata><defs
     id="defs3745"><clipPath
       clipPathUnits="userSpaceOnUse"
       id="clipPath3757"><path
         d="M 0,600 H 600 V 0 H 0 Z"
         id="path3755"
         inkscape:connector-curvature="0" /></clipPath><radialGradient
       fx="0"
       fy="0"
       cx="0"
       cy="0"
       r="1"
       gradientUnits="userSpaceOnUse"
       gradientTransform="matrix(255.55025,0,0,-255.55025,276.93018,353.95605)"
       spreadMethod="pad"
       id="radialGradient3783"><stop
         style="stop-opacity:1;stop-color:#fff424"
         offset="0"
         id="stop3771" /><stop
         style="stop-opacity:1;stop-color:#fac308"
         offset="0.13312686"
         id="stop3773" /><stop
         style="stop-opacity:1;stop-color:#fac308"
         offset="0.280899"
         id="stop3775" /><stop
         style="stop-opacity:1;stop-color:#f3812f"
         offset="0.668539"
         id="stop3777" /><stop
         style="stop-opacity:1;stop-color:#ee5233"
         offset="0.88764"
         id="stop3779" /><stop
         style="stop-opacity:1;stop-color:#ea2c35"
         offset="1"
         id="stop3781" /></radialGradient></defs><sodipodi:namedview
     pagecolor="#ffffff"
     bordercolor="#666666"
     borderopacity="1"
     objecttolerance="10"
     gridtolerance="10"
     guidetolerance="10"
     inkscape:pageopacity="0"
     inkscape:pageshadow="2"
     inkscape:window-width="1920"
     inkscape:window-height="1018"
     id="namedview3743"
     showgrid="false"
     inkscape:zoom="0.86963542"
     inkscape:cx="391.52542"
     inkscape:cy="393.22034"
     inkscape:window-x="-8"
     inkscape:window-y="-8"
     inkscape:window-maximized="1"
     inkscape:current-layer="g3749" /><g
     id="g3749"
     inkscape:groupmode="layer"
     inkscape:label="abstract-shape-104a-publicdomainvectors.org"
     transform="matrix(1.3333333,0,0,-1.3333333,0,800)"><g
       id="g3751"><g
         id="g3753"
         clip-path="url(#clipPath3757)"><g
           id="g3759"><g
             id="g3761"><g
               id="g3767"><g
                 id="g3769"><path
                   d="m 381.919,313.472 c -0.663,0.198 -1.247,0.311 -1.778,0.259 0,0 -0.245,-0.176 -0.651,-0.476 -0.065,-0.003 -0.107,-0.009 -0.107,-0.009 -3.154,-2.267 -6.079,-4.407 -8.837,-6.55 0,0 2.66,-0.397 4.091,-0.793 2.259,2.561 7.282,7.569 7.282,7.569 m -16.418,-7.127 c 1.355,0.309 2.621,0.442 3.902,0.418 2.971,2.069 6.134,4.162 9.498,6.382 -0.477,-0.15 -0.976,-0.509 -1.498,-1.07 -4.199,-2.035 -8.133,-3.901 -11.902,-5.73 m -6.115,-1.945 c 1.678,0.581 3.125,1.098 4.403,1.486 4.082,1.712 8.392,3.48 12.925,5.421 -0.531,-0.612 -1.215,-1.39 -2.184,-2.267 -5.312,-1.702 -10.344,-3.209 -15.144,-4.64 m -10.355,-3.022 c 2.607,0.597 4.869,1.236 6.807,1.844 5.197,1.227 10.731,2.56 16.487,4.063 -1.283,-0.897 -2.937,-1.87 -5,-2.812 -6.395,-1.179 -12.529,-2.185 -18.294,-3.095 m -19.125,-2.685 c 3.926,0.273 7.536,0.663 10.773,1.136 6.202,0.601 12.803,1.274 19.701,2.105 -2.785,-0.818 -6.034,-1.563 -9.657,-2.176 -7.333,-0.462 -14.235,-0.772 -20.817,-1.065 m -32.823,0.098 c 5.115,-0.293 10.082,-0.478 14.809,-0.543 6.843,-0.076 14.126,-0.195 21.777,-0.236 -4.557,-0.217 -9.407,-0.283 -14.468,-0.199 -7.805,0.344 -15.15,0.715 -22.118,0.978 m -49.691,4.556 c 5.532,-0.56 11.047,-1.148 16.531,-1.715 6.891,-0.304 14.223,-0.925 22.065,-1.665 -5.571,0.572 -11.223,1.231 -16.932,1.944 -7.748,0.778 -14.995,1.361 -21.664,1.436 m -59.34,-1.102 c 3.268,1.315 6.939,2.123 10.841,2.637 3.765,2.891 9.82,3.692 16.527,3.809 -4.996,0.497 -9.936,0.903 -14.804,1.148 -5.955,-0.824 -11.278,-3.307 -12.564,-7.594 m 44.902,-93.598 c -6.688,6.358 -13.006,12.693 -18.891,18.943 -14.96,11.691 -28.205,23.049 -39.349,33.945 -9.728,9.512 -17.45,18.264 -22.848,26.268 -0.094,-2.908 0.262,-6.043 1.015,-9.336 8.118,-9.832 18.777,-20.399 31.625,-31.686 14.333,-12.592 30.657,-25.386 48.448,-38.134 M 310.252,79.258 c -6.019,2.919 -12.101,5.961 -18.252,9.109 0.323,-0.519 0.617,-1.084 0.952,-1.616 5.848,-2.626 11.618,-5.12 17.3,-7.493 m 50.229,218.412 c 2.672,-0.547 5.46,-1.284 8.396,-2.223 0.966,2.018 2.14,4.008 3.487,5.968 -2.288,0.69 -4.404,1.206 -6.437,1.509 -2.019,-1.736 -3.804,-3.462 -5.446,-5.254 m -9.193,1.134 c 2.401,-0.105 4.766,-0.351 7.147,-0.753 1.808,1.722 3.78,3.393 5.964,5.063 -1.745,0.172 -3.48,0.187 -5.286,0.045 -2.776,-1.437 -5.435,-2.876 -7.825,-4.355 m -10.356,-0.197 c 2.589,0.156 5.009,0.262 7.29,0.26 2.68,1.377 5.526,2.696 8.597,4.044 -1.699,-0.23 -3.573,-0.58 -5.648,-0.981 -3.597,-1.102 -7.06,-2.195 -10.239,-3.323 m -14.301,-0.926 c 3.273,0.174 6.296,0.385 9.049,0.575 3.51,0.973 7.252,1.9 11.201,2.846 -2.301,-0.431 -4.884,-0.879 -7.791,-1.29 -4.394,-0.699 -8.543,-1.384 -12.459,-2.131 m -22.1,-0.433 c 4.239,-0.052 8.278,-0.034 12.05,0.051 4.213,0.555 8.668,1.025 13.398,1.493 -3.477,-0.292 -7.286,-0.506 -11.359,-0.616 -4.98,-0.249 -9.672,-0.528 -14.089,-0.928 m -33.755,1.42 c 5.027,-0.288 9.986,-0.572 14.827,-0.805 4.496,0.315 9.382,0.42 14.525,0.446 -4.806,0.172 -9.803,0.447 -14.922,0.791 -5.185,0.05 -9.983,-0.042 -14.43,-0.432 m -44.724,0.412 c 4.386,0.539 8.987,0.735 13.739,0.766 3.564,1.224 7.912,1.711 12.682,1.891 -5.311,0.429 -10.603,0.82 -15.854,1.093 -4.302,-0.561 -8.081,-1.637 -10.567,-3.75 m -13.135,-36.579 c -3.616,5.645 -6.15,10.849 -7.334,15.511 -6.022,7.61 -9.767,14.343 -9.975,19.695 -2.499,-1.674 -4.514,-4.034 -5.495,-6.875 4.003,-8.248 11.974,-17.657 22.804,-28.331 M 370.896,132.934 c -4.747,2.522 -9.915,5.429 -15.495,8.746 -9.54,3.697 -20.587,8.898 -33.03,15.441 -13.928,7.338 -28.806,15.957 -44.28,25.684 8.082,-6.469 16.232,-12.72 24.36,-18.747 15.208,-8.627 29.201,-15.845 41.739,-21.431 10.605,-4.738 19.521,-8.064 26.706,-9.693 m -16.503,155.322 c 3.683,-0.975 7.488,-2.152 11.479,-3.52 0.16,1.817 0.495,3.61 0.982,5.36 -3.497,1.158 -6.814,2.118 -10.019,2.883 -0.962,-1.515 -1.834,-3.103 -2.442,-4.723 m -12.92,2.735 c 3.321,-0.525 6.656,-1.188 10.053,-2.009 0.784,1.577 1.7,3.09 2.831,4.554 -2.912,0.616 -5.79,1.073 -8.678,1.396 -1.567,-1.243 -3.001,-2.556 -4.206,-3.941 m -14.035,1.503 c 3.36,-0.218 6.596,-0.514 9.773,-0.906 1.378,1.305 3.027,2.53 4.768,3.684 -2.751,0.203 -5.612,0.307 -8.612,0.354 -2.147,-0.97 -4.15,-2 -5.929,-3.132 m -17.462,0.74 c 3.741,-0.113 7.359,-0.228 10.798,-0.379 2.015,1.034 4.182,1.951 6.58,2.805 -3.12,-0.002 -6.47,-0.027 -10.015,-0.035 -2.639,-0.701 -5.142,-1.475 -7.363,-2.391 m -23.837,0.621 c 4.301,-0.093 8.536,-0.207 12.632,-0.313 2.366,0.856 5.014,1.541 7.841,2.128 -3.965,0.047 -8.151,0.131 -12.468,0.249 -2.919,-0.526 -5.621,-1.181 -8.005,-2.064 m -31.586,-0.394 c 4.28,0.365 8.688,0.514 13.161,0.566 2.13,1.139 4.638,1.939 7.49,2.524 -4.745,0.164 -9.529,0.312 -14.303,0.377 -2.576,-0.791 -4.777,-1.908 -6.348,-3.467 m -25.601,-14.486 c 0.271,3.269 1.846,6.094 4.102,8.054 -0.938,3.108 -0.874,6.069 0.325,8.185 -3.758,-0.788 -7.22,-1.929 -10.027,-3.736 0.454,-3.648 2.481,-7.874 5.6,-12.503 m 73.565,-86.116 c -10.058,7.955 -19.832,16.198 -28.996,24.578 -14.611,10.806 -28.368,21.797 -40.645,32.709 5.875,-7.3 13.013,-14.962 21.213,-22.939 15.977,-12.346 32.413,-23.904 48.428,-34.348 m 62.275,-36.591 c 1.691,-1.319 3.252,-2.59 4.633,-3.848 6.009,-5.463 11.171,-10.877 9.779,-14.209 1.368,-0.361 2.456,-0.494 3.118,-0.205 -2.815,5.873 -9.545,11.815 -17.53,18.262 m -11.909,121.153 c 4.515,-1.368 9.185,-2.939 14.05,-4.712 -0.408,1.659 -0.717,3.302 -0.918,4.923 -4.554,1.618 -8.905,3.05 -13.119,4.272 -0.108,-1.461 -0.16,-2.961 -0.013,-4.483 m -16.038,4.179 c 4.079,-0.879 8.234,-1.92 12.483,-3.133 -0.014,1.488 0.012,2.951 0.264,4.367 -3.943,1.062 -7.787,1.974 -11.603,2.721 -0.533,-1.261 -0.916,-2.589 -1.144,-3.955 m -16.949,2.856 c 3.898,-0.481 7.805,-1.08 11.71,-1.806 0.318,1.323 0.849,2.596 1.495,3.795 -3.64,0.608 -7.325,1.096 -11.033,1.5 -0.904,-1.077 -1.62,-2.248 -2.172,-3.489 m -19.441,1.583 c 3.932,-0.165 7.88,-0.42 11.779,-0.768 0.627,1.21 1.495,2.334 2.501,3.353 -3.749,0.298 -7.612,0.523 -11.516,0.705 -1.135,-0.97 -2.064,-2.077 -2.764,-3.29 m -23.151,-0.317 c 3.817,0.339 7.762,0.491 11.768,0.521 0.638,1.29 1.519,2.461 2.674,3.454 -4.11,0.074 -8.251,0.086 -12.352,-0.009 -0.997,-1.131 -1.751,-2.488 -2.09,-3.966 m -22.264,-7.623 c 1.887,2.135 4.581,3.656 7.612,4.767 -0.443,2.007 -0.408,3.91 0.062,5.548 -3.768,-0.582 -7.299,-1.405 -10.417,-2.707 0.359,-2.338 1.296,-4.893 2.743,-7.608 m 16.254,-42.004 c -6.02,6.911 -10.822,13.331 -14.174,19.242 -5.291,5.207 -9.916,10.188 -13.834,14.95 0.786,-4.385 3.065,-9.439 6.583,-14.993 6.529,-6.292 13.711,-12.705 21.425,-19.199 m 87.171,-73.267 c -2.538,1.41 -6.152,3.762 -10.849,7.014 -5.898,2.892 -13.266,7.047 -22.038,12.388 8.097,-6.089 15.517,-11.345 22.076,-15.691 5.27,-2.497 8.971,-4.215 10.811,-3.711 m -2.117,101.599 c 5.078,-1.622 10.33,-3.473 15.78,-5.517 -0.691,1.442 -1.351,2.867 -1.953,4.289 -5.315,1.983 -10.434,3.766 -15.378,5.336 0.471,-1.357 0.957,-2.722 1.551,-4.108 m -18.141,5.113 c 4.557,-1.082 9.267,-2.373 14.116,-3.852 -0.563,1.373 -1.008,2.72 -1.441,4.06 -4.704,1.422 -9.289,2.649 -13.737,3.699 0.253,-1.278 0.634,-2.586 1.062,-3.907 m -18.597,3.456 c 4.117,-0.53 8.382,-1.25 12.744,-2.152 -0.402,1.31 -0.719,2.601 -0.931,3.861 -4.263,0.873 -8.463,1.586 -12.559,2.127 0.151,-1.247 0.368,-2.524 0.746,-3.836 m -19.383,1.018 c 3.622,0.149 7.455,0.069 11.426,-0.219 -0.36,1.336 -0.654,2.645 -0.753,3.903 -4.003,0.339 -7.926,0.508 -11.71,0.503 0.197,-1.349 0.534,-2.746 1.037,-4.187 m -18.16,-4.3 c 2.328,1.477 5.176,2.472 8.338,3.153 -0.735,1.631 -1.344,3.219 -1.728,4.741 -3.51,-0.43 -6.776,-1.102 -9.679,-2.165 0.832,-1.847 1.836,-3.752 3.069,-5.729 m -2.523,-21.128 c -2.105,4.43 -3.179,8.466 -3.024,11.799 -2.359,2.738 -4.464,5.389 -6.352,7.972 -1.185,-2.552 -1.392,-5.894 -0.492,-9.603 3.05,-3.326 6.351,-6.715 9.868,-10.168 m 51.371,-57.615 c -6.946,6.091 -14.104,12.654 -21.051,19.553 -5.455,4.185 -11.045,8.544 -16.657,13.084 6.734,-7.258 14.209,-14.516 22.055,-21.633 5.615,-4.055 10.856,-7.709 15.653,-11.004 m 13.96,-14.83 c 0.407,-0.221 0.801,-0.446 1.188,-0.661 3.147,-2.117 5.792,-4.015 7.817,-5.748 -1.859,1.064 -4.554,2.7 -8.021,4.716 -0.088,0.06 -0.177,0.118 -0.264,0.18 -0.247,0.497 -0.486,1.002 -0.72,1.513 m 19.631,72.972 c 5.228,-1.66 10.664,-3.557 16.288,-5.644 -0.656,1.07 -1.314,2.134 -1.952,3.201 -5.626,2.1 -11.063,4.011 -16.298,5.684 0.645,-1.082 1.277,-2.156 1.962,-3.241 m -18.709,5.166 c 4.619,-1.041 9.485,-2.357 14.538,-3.873 -0.691,1.09 -1.314,2.169 -1.964,3.251 -5.05,1.532 -9.919,2.86 -14.566,3.937 0.61,-1.094 1.322,-2.209 1.992,-3.315 m -18.337,2.881 c 3.855,-0.262 8.03,-0.84 12.415,-1.652 -0.688,1.125 -1.404,2.25 -2.028,3.359 -4.425,0.863 -8.657,1.488 -12.607,1.828 0.698,-1.168 1.442,-2.346 2.22,-3.535 m -16.447,-1.391 c 2.655,0.895 5.749,1.383 9.216,1.522 -0.874,1.255 -1.673,2.494 -2.455,3.723 -3.599,-0.043 -6.921,-0.358 -9.809,-1.085 0.94,-1.369 2.001,-2.761 3.048,-4.16 m -8.301,-11.124 c -0.107,2.896 0.699,5.421 2.24,7.266 -1.371,1.609 -2.693,3.203 -3.951,4.78 -1.894,-1.586 -3.212,-3.781 -3.569,-6.42 1.718,-1.865 3.452,-3.74 5.28,-5.626 m 18.086,-32.53 c -4.594,5.522 -8.599,10.871 -11.732,15.971 -2.49,2.24 -4.967,4.504 -7.427,6.783 2.671,-4.939 6.382,-10.248 10.848,-15.834 2.819,-2.376 5.605,-4.68 8.311,-6.92 m 28.081,-32.853 c 0.753,0.027 0.062,1.909 -1.814,4.095 -1.044,0.758 -2.328,1.657 -3.846,2.737 3.343,-3.358 5.925,-5.71 6.664,-7.483 0.122,0.028 -0.431,0.292 -1.004,0.651 m 26.881,53.054 c 4.925,-1.439 10.07,-3.087 15.393,-4.957 -0.357,0.558 -0.721,1.114 -1.087,1.671 -5.375,1.893 -10.575,3.605 -15.548,5.065 0.419,-0.597 0.822,-1.185 1.242,-1.779 m -17.483,4.172 c 4.232,-0.742 8.77,-1.777 13.546,-3.068 -0.433,0.603 -0.847,1.202 -1.283,1.809 -4.831,1.337 -9.416,2.4 -13.71,3.185 0.496,-0.643 0.946,-1.283 1.447,-1.926 m -16.011,1.11 c 3.14,0.271 6.72,0.14 10.649,-0.323 -0.532,0.663 -1.003,1.323 -1.53,1.987 -3.998,0.51 -7.645,0.681 -10.885,0.486 0.565,-0.712 1.196,-1.437 1.766,-2.15 m -11.265,-4.942 c 1.264,1.765 3.228,3.071 5.705,3.883 -0.641,0.76 -1.327,1.524 -1.964,2.281 -2.594,-0.734 -4.665,-1.965 -6.072,-3.652 0.771,-0.837 1.559,-1.678 2.331,-2.512 m 1.108,-16.508 c -1.598,3.62 -2.593,6.977 -2.752,9.916 -0.904,0.9 -1.806,1.803 -2.712,2.717 0.011,-2.873 0.932,-6.222 2.48,-9.842 1.014,-0.941 1.995,-1.873 2.984,-2.791 m 15.619,-26.46 c -1.45,2.941 -3.719,6.242 -6.142,9.962 -0.812,0.727 -1.67,1.472 -2.55,2.249 2.73,-4.022 5.401,-7.686 7.441,-11.02 0.468,-0.424 0.886,-0.82 1.251,-1.191 m 39.154,26.388 c 4.279,-1.01 8.771,-2.23 13.426,-3.658 -0.023,0.039 -0.046,0.077 -0.065,0.119 -4.663,1.431 -9.158,2.651 -13.445,3.671 0.028,-0.044 0.06,-0.085 0.084,-0.132 m -14.985,2.508 c 3.545,-0.277 7.436,-0.895 11.57,-1.751 -0.027,0.047 -0.058,0.091 -0.089,0.134 -4.139,0.865 -8.034,1.474 -11.589,1.763 0.036,-0.049 0.07,-0.097 0.108,-0.146 m -12.811,-0.95 c 2.341,0.768 5.181,1.108 8.368,1.132 -0.042,0.048 -0.077,0.099 -0.116,0.152 -3.191,-0.018 -6.044,-0.351 -8.385,-1.123 0.045,-0.055 0.088,-0.107 0.133,-0.161 m -7.376,-7.042 c 0.617,1.994 1.745,3.745 3.423,5.027 -0.047,0.057 -0.093,0.11 -0.143,0.165 -1.677,-1.284 -2.802,-3.035 -3.427,-5.028 0.05,-0.055 0.099,-0.108 0.147,-0.164 m 0.116,-13.982 c -0.176,2.404 -0.566,4.898 -0.71,7.392 -0.045,0.051 -0.086,0.1 -0.133,0.147 0.155,-2.506 0.562,-5.014 0.765,-7.438 0.028,-0.032 0.048,-0.07 0.078,-0.101 m -7.41,-6.584 c 1.875,-0.29 3.484,-0.313 4.724,0.058 l 0.07,-0.007 c -1.242,-0.417 -2.893,-0.385 -4.816,-0.085 z m 40.545,126.377 c -0.408,0.144 -0.732,0.238 -0.995,0.122 0,0 0.262,0.183 0.693,0.507 l -0.032,-0.024 c 3.513,2.52 7.146,5.148 10.957,8.051 0,0 -1.011,0.261 -1.355,0.107 -3.293,-3.143 -9.268,-8.763 -9.268,-8.763 m 13.816,6.793 c -0.813,0.707 -1.691,1.242 -2.578,1.632 -4.055,-2.883 -7.948,-5.504 -11.687,-7.986 -0.11,-0.259 -0.096,-0.712 -0.154,-1.336 4.638,2.333 9.412,4.839 14.419,7.69 m 2.868,-4.281 c -0.342,1.239 -0.984,2.268 -1.779,3.2 -5.41,-2.804 -10.612,-5.268 -15.617,-7.512 -0.121,-0.739 -0.369,-1.622 -0.907,-2.638 5.857,2.028 11.941,4.281 18.303,6.95 m -1.348,-6.917 c 1.037,1.547 1.498,3.013 1.606,4.353 -6.937,-2.493 -13.63,-4.612 -19.982,-6.437 -0.899,-1.054 -2.196,-2.197 -3.931,-3.342 7.071,1.486 14.531,3.258 22.307,5.426 m -11.777,-8.525 c 3.044,1.322 5.599,2.773 7.522,4.216 -8.449,-1.76 -16.522,-3.13 -24.156,-4.233 -2.525,-1.022 -5.553,-1.985 -8.989,-2.816 8.074,0.669 16.642,1.575 25.623,2.833 m -29.122,-6.636 c 4.963,0.493 9.613,1.184 13.867,2.053 -9.443,-0.533 -18.383,-0.77 -26.846,-0.855 -4.463,-0.409 -9.239,-0.656 -14.262,-0.738 8.579,-0.295 17.671,-0.492 27.241,-0.46 m -50.193,0.463 c 5.803,-0.517 11.527,-0.907 17.124,-1.147 -9.582,0.795 -18.675,1.689 -27.303,2.542 -5.579,0.496 -11.257,1.104 -16.999,1.795 8.581,-0.995 17.665,-2.111 27.178,-3.19 m -71.058,10.298 c 5.314,-0.929 10.624,-1.852 15.929,-2.75 -9.375,1.454 -18.259,2.695 -26.577,3.372 -5.202,0.741 -10.388,1.45 -15.547,2.08 8.108,-0.242 16.849,-1.31 26.195,-2.702 m -90.488,11.518 c 3.334,-0.029 6.701,-0.146 10.088,-0.324 -7.514,-1.354 -13.976,-6.46 -13.483,-13.345 -1.966,-1.302 -3.753,-2.841 -5.262,-4.604 -2.819,8.512 1.738,16.054 8.657,18.273 M 42.084,294.517 c 0.484,0.081 0.981,0.146 1.46,0.225 2.867,-7.148 7.187,-14.888 12.853,-23.142 6.41,-9.344 14.442,-19.225 24.014,-29.592 10.55,-11.451 22.784,-23.278 36.556,-35.418 14.757,-13.01 30.975,-26.102 48.48,-39.086 -0.043,-0.571 -0.027,-1.089 0.011,-1.67 -17.711,13.121 -34.13,26.348 -49.074,39.5 -13.946,12.275 -26.331,24.24 -37.008,35.829 -9.69,10.487 -17.816,20.487 -24.295,29.943 -5.727,8.353 -10.1,16.18 -12.997,23.411 m 371.748,45.686 c -2.042,0.054 -3.967,-0.031 -5.71,-0.425 -2.873,-3.216 -5.702,-6.218 -8.449,-9.05 0.917,0.275 2.024,0.225 3.187,0.032 3.599,2.921 7.23,6.001 10.972,9.443 m 8.962,-1.401 c -2.336,0.658 -4.764,1.073 -7.156,1.291 -3.984,-3.486 -7.861,-6.621 -11.686,-9.551 1.499,-0.354 2.963,-0.913 4.382,-1.631 4.697,2.942 9.547,6.246 14.46,9.891 m 9.775,-4.442 c -1.957,1.375 -4.179,2.506 -6.606,3.417 -5.386,-3.741 -10.605,-6.998 -15.731,-9.981 1.423,-0.976 2.681,-2.074 3.629,-3.408 6.031,2.888 12.3,6.202 18.708,9.972 m 6.283,-8.726 c -0.427,2.124 -1.445,4.001 -2.884,5.681 -7.122,-3.766 -14.003,-6.949 -20.663,-9.748 0.473,-1.499 0.569,-3.149 0.063,-4.945 7.528,2.534 15.324,5.458 23.484,9.012 m -5.159,-13.016 c 2.3,2.278 3.756,4.589 4.583,6.778 -8.98,-3.141 -17.621,-5.739 -25.812,-7.863 -1.52,-1.741 -3.693,-3.518 -6.451,-5.201 8.749,1.635 17.999,3.694 27.68,6.286 M 407.48,299.186 c 4.93,1.411 9.405,3.054 13.297,4.872 -10.267,-1.697 -19.944,-2.892 -29.155,-3.779 -4.127,-1.214 -8.697,-2.248 -13.631,-3.07 9.31,0.351 19.097,0.953 29.489,1.977 m -51.5,-6.112 c 6.047,0.006 12.016,0.197 17.788,0.6 -10.175,0.168 -19.811,0.585 -28.976,1.142 -5.644,0.015 -11.427,0.204 -17.301,0.544 9.03,-0.88 18.515,-1.674 28.489,-2.286 m -72.697,6.809 c 5.336,-0.877 10.69,-1.696 16.044,-2.442 -9.481,1.51 -18.568,3.041 -27.327,4.5 -5.313,0.873 -10.629,1.794 -15.944,2.747 8.743,-1.508 17.809,-3.149 27.227,-4.805 m -90.786,18.064 c 3.475,-0.721 6.96,-1.453 10.451,-2.187 -9.841,1.74 -19.257,3.125 -28.227,3.649 -3.556,0.544 -7.107,1.06 -10.65,1.543 8.958,-0.139 18.457,-1.353 28.426,-3.005 M 78.164,339.773 c 0.367,-0.083 0.767,-0.162 1.133,-0.242 -13.814,-0.545 -27.634,-3.367 -34.922,-12.399 -0.472,0.044 -0.95,0.081 -1.426,0.121 7.349,9.122 21.306,11.967 35.215,12.52 m 356.035,21.935 c -3.661,-0.585 -7.145,-1.354 -10.391,-2.369 -2.6,-3.675 -5.237,-7.099 -7.835,-10.329 2.485,0.62 5.215,1.014 8.04,1.176 3.367,3.517 6.805,7.406 10.186,11.522 m 15.86,1.188 c -4.259,0.037 -8.525,-0.234 -12.68,-0.741 -3.641,-4.328 -7.265,-8.188 -10.885,-11.868 3.258,0.059 6.56,-0.123 9.84,-0.543 4.533,3.97 9.118,8.347 13.725,13.152 m 18.907,-2.245 c -4.144,1.09 -8.575,1.674 -13.093,2.028 -5.073,-5.012 -10.139,-9.593 -15.104,-13.679 3.433,-0.706 6.674,-1.702 9.659,-3.007 6.064,4.347 12.253,9.169 18.538,14.658 m 17.566,-8.802 c -2.674,2.49 -5.917,4.546 -9.68,6.153 -7.138,-5.639 -14.161,-10.639 -20.955,-15.025 2.499,-1.728 4.515,-3.758 5.964,-6.115 7.943,4.326 16.165,9.262 24.671,14.987 m 5.94,-10.426 c -0.162,0.81 -0.354,1.604 -0.609,2.374 -9.728,-5.525 -19.015,-10.121 -27.955,-14.163 -0.023,-2.613 -0.74,-5.442 -2.433,-8.35 7.153,2.541 14.599,5.455 22.306,8.769 3.047,3.482 5.948,7.281 8.691,11.37 m -25.637,-27.101 c -5.691,-1.611 -11.226,-3.04 -16.583,-4.32 -3.643,-2.481 -8,-4.83 -12.963,-6.923 5.556,0.908 11.292,1.953 17.207,3.151 4.178,2.384 8.313,5.067 12.339,8.092 m -36.529,-18.781 c -9.665,-0.812 -18.85,-1.328 -27.595,-1.626 -5.979,-0.893 -12.202,-1.54 -18.538,-1.962 9.76,-0.166 20.049,-0.121 30.96,0.252 3.165,0.448 6.277,0.961 9.344,1.529 1.94,0.563 3.885,1.161 5.829,1.807 m -94.252,-4.023 c 5.645,-0.547 11.309,-0.993 17.029,-1.327 -9.627,1.008 -18.812,2.148 -27.628,3.356 -5.472,0.566 -10.945,1.229 -16.372,1.964 8.645,-1.39 17.603,-2.738 26.971,-3.993 m -90.064,15.364 c 3.243,-0.727 6.509,-1.444 9.805,-2.158 -8.982,1.988 -17.753,3.937 -26.366,5.777 -3.372,0.751 -6.729,1.507 -10.072,2.266 8.728,-1.853 17.573,-3.838 26.633,-5.885 m -94.59,23.602 c 0.251,-0.071 0.517,-0.141 0.767,-0.212 -11.647,2.582 -23.377,4.9 -35.237,6.646 -0.305,0.079 -0.61,0.158 -0.913,0.238 11.91,-1.75 23.696,-4.082 35.383,-6.672 m 304.449,63.101 c -5.495,-2.231 -10.707,-4.475 -15.559,-6.976 -2.133,-4.174 -4.295,-8.132 -6.498,-11.869 4.204,1.749 8.732,3.368 13.478,4.739 2.905,4.354 5.793,9.12 8.579,14.106 m 24.237,8.025 c -6.698,-1.773 -13.205,-3.927 -19.467,-6.196 -3.019,-5.219 -6.132,-10.229 -9.23,-14.786 5.386,1.436 10.962,2.598 16.632,3.467 4.04,5.421 8.088,11.184 12.065,17.515 m 31.574,5.582 c -7.408,-0.591 -14.869,-1.751 -22.28,-3.332 -4.477,-6.797 -9.026,-13.024 -13.552,-18.78 6.17,0.616 12.279,0.788 18.261,0.487 5.803,6.489 11.7,13.779 17.571,21.625 m 0.116,-16.663 c -2.005,-2.169 -4.003,-4.277 -5.993,-6.33 1.508,-0.285 2.986,-0.634 4.446,-0.989 0.553,2.387 1.089,4.823 1.547,7.319 M 385.412,287.072 c -3.849,0.024 -7.678,0.102 -11.472,0.233 2.124,-0.186 4.271,-0.362 6.441,-0.534 1.671,0.083 3.348,0.184 5.031,0.301 m -81.311,7.135 c 3.271,-0.581 6.589,-1.144 9.955,-1.691 -8.189,1.554 -16.1,3.147 -23.833,4.756 -3.294,0.623 -6.543,1.257 -9.76,1.905 7.675,-1.671 15.554,-3.338 23.638,-4.97 m -85.77,19.421 c 0.191,-0.051 0.401,-0.108 0.608,-0.162 -8.525,2.276 -17.033,4.537 -25.565,6.758 -0.223,0.06 -0.444,0.122 -0.652,0.18 8.545,-2.222 17.074,-4.493 25.609,-6.776 M 477.017,442.3 c -7.459,-5.526 -14.459,-11.131 -20.949,-16.47 -1.431,-4.598 -2.917,-9.01 -4.48,-13.225 6.02,4.298 12.48,8.619 19.364,12.942 2.101,5.268 4.109,10.935 6.065,16.753 m 34.137,23.711 c -9.718,-6.224 -18.925,-12.571 -27.601,-18.888 -2.119,-6.215 -4.306,-12.286 -6.597,-17.884 7.947,4.773 16.321,9.472 25.069,13.992 3.151,7.212 6.186,14.647 9.129,22.78 M 283.116,296.694 c 0.208,-0.046 0.358,-0.075 0.579,-0.124 -6.617,1.637 -13.117,3.284 -19.54,4.939 -0.22,0.053 -0.368,0.086 -0.576,0.135 6.421,-1.658 12.922,-3.31 19.537,-4.95 M 493.767,518.57 c -9.152,-12.455 -17.612,-24.183 -25.453,-35.095 -0.581,-4.623 -1.256,-9.11 -1.965,-13.471 7.574,9.542 15.88,19.649 24.728,30.31 0.998,5.842 1.876,12.004 2.69,18.256 m 5.879,-4.643 c -0.244,-1.414 -0.447,-2.822 -0.699,-4.202 0.469,0.592 0.972,1.16 1.465,1.737 -0.272,0.813 -0.527,1.636 -0.766,2.465 M 474.469,577.1 c -1.031,-2.611 -1.935,-5.235 -2.914,-7.796 0.135,-3.617 0.258,-7.179 0.335,-10.691 1.684,4.225 3.448,8.515 5.212,12.908 -0.824,1.871 -1.751,3.708 -2.633,5.579 M 383.018,313.088 c 0.906,-0.349 1.918,-0.808 3.069,-1.356 0,0 -0.123,-0.195 -0.333,-0.541 0.155,-0.085 0.256,-0.12 0.256,-0.12 -1.525,-2.589 -2.935,-5.203 -4.059,-7.764 0,0 -3.579,1.414 -5.304,1.986 1.955,2.653 6.371,7.795 6.371,7.795 m 7.892,-13.728 c -2.564,1.194 -4.955,2.243 -7.135,3.185 0.938,2.618 2.166,5.274 3.521,7.911 1.599,-0.773 3.376,-1.668 5.366,-2.678 -0.781,-2.812 -1.365,-5.626 -1.752,-8.418 m 10.879,-5.18 c -2.686,1.31 -5.225,2.525 -7.612,3.654 0.174,2.862 0.516,5.738 1.078,8.622 1.938,-0.99 4.015,-2.071 6.272,-3.225 -0.109,-3.036 0.008,-6.043 0.262,-9.051 m 12.577,-6.205 c -2.625,1.303 -5.131,2.562 -7.549,3.744 -0.472,3.094 -0.863,6.179 -1.006,9.302 2.096,-1.068 4.273,-2.217 6.588,-3.404 0.542,-3.219 1.127,-6.456 1.967,-9.642 m 13.934,-7.014 c -2.389,1.207 -4.702,2.386 -6.961,3.518 -1.059,3.283 -1.915,6.602 -2.713,9.917 2.045,-1.052 4.153,-2.14 6.33,-3.275 1.013,-3.4 2.103,-6.794 3.344,-10.16 m 14.913,-7.607 c -2.021,1.031 -4.007,2.051 -5.952,3.046 -1.448,3.453 -2.765,6.936 -4.022,10.429 1.825,-0.94 3.683,-1.908 5.581,-2.894 1.377,-3.55 2.848,-7.076 4.393,-10.581 m 15.513,-8 c -1.56,0.816 -3.122,1.609 -4.648,2.404 -1.681,3.586 -3.36,7.178 -4.932,10.81 1.467,-0.767 2.961,-1.538 4.468,-2.326 1.646,-3.656 3.376,-7.281 5.112,-10.888 m 15.77,-8.204 c -1.071,0.553 -2.111,1.118 -3.175,1.658 -1.812,3.653 -3.679,7.328 -5.46,11.042 1.043,-0.531 2.076,-1.076 3.115,-1.63 1.817,-3.718 3.711,-7.403 5.52,-11.07 m 15.737,-8.252 c -0.531,0.295 -1.093,0.579 -1.638,0.864 -1.819,3.674 -3.777,7.379 -5.644,11.127 0.54,-0.289 1.098,-0.568 1.639,-0.864 1.877,-3.746 3.83,-7.453 5.643,-11.127 M 378.499,291.99 c -3.329,1.311 -6.434,2.44 -9.365,3.375 0.942,2.028 2.105,4.02 3.432,5.988 2.341,-0.715 4.842,-1.629 7.572,-2.713 -0.755,-2.201 -1.252,-4.41 -1.639,-6.65 m 12.127,-5.103 c -3.374,1.492 -6.556,2.849 -9.559,4.076 0.197,2.275 0.658,4.565 1.212,6.809 2.536,-1.048 5.254,-2.229 8.17,-3.54 -0.093,-2.436 -0.055,-4.894 0.177,-7.345 m 13.569,-6.222 c -3.265,1.544 -6.401,2.987 -9.39,4.349 -0.385,2.519 -0.627,5.041 -0.697,7.55 2.648,-1.223 5.443,-2.533 8.383,-3.937 0.417,-2.656 1.016,-5.307 1.704,-7.962 m 14.747,-7.093 c -3.01,1.473 -5.93,2.883 -8.753,4.242 -0.854,2.727 -1.644,5.454 -2.247,8.188 2.596,-1.26 5.29,-2.574 8.081,-3.954 0.84,-2.835 1.88,-5.652 2.919,-8.476 m 15.565,-7.715 c -2.622,1.306 -5.189,2.586 -7.691,3.834 -1.177,2.895 -2.401,5.784 -3.413,8.694 2.374,-1.18 4.804,-2.404 7.298,-3.659 1.248,-2.958 2.436,-5.925 3.806,-8.869 m 16.007,-8.099 c -2.13,1.094 -4.239,2.163 -6.321,3.215 -1.47,3 -2.806,6.018 -4.188,9.044 2.01,-1.023 4.056,-2.068 6.134,-3.128 1.458,-3.055 2.856,-6.104 4.375,-9.131 m 16.1,-8.272 c -1.594,0.836 -3.201,1.647 -4.773,2.464 -1.561,3.056 -3.044,6.142 -4.595,9.235 1.566,-0.798 3.116,-1.626 4.722,-2.439 1.564,-3.108 3.076,-6.197 4.646,-9.26 m 15.903,-8.266 c -1.066,0.551 -2.11,1.106 -3.168,1.654 -1.549,3.06 -3.075,6.156 -4.671,9.271 1.06,-0.549 2.115,-1.108 3.186,-1.663 1.581,-3.119 3.132,-6.199 4.653,-9.262 m 15.476,-8.12 c -0.542,0.273 -1.055,0.568 -1.596,0.839 -1.431,3.024 -2.935,6.073 -4.468,9.169 0.545,-0.281 1.081,-0.574 1.629,-0.856 1.528,-3.09 3.013,-6.137 4.435,-9.152 m -119.624,46.959 c -4.258,1.707 -8.301,3.227 -12.155,4.559 0.149,1.822 0.468,3.621 0.942,5.377 3.42,-1.14 7.019,-2.468 10.842,-3.981 -0.04,-1.967 0.146,-3.95 0.371,-5.955 m 14.873,-6.297 c -4.061,1.789 -7.927,3.46 -11.647,4.987 -0.326,2.048 -0.623,4.075 -0.678,6.091 3.386,-1.383 6.94,-2.9 10.68,-4.551 0.466,-2.162 0.969,-4.345 1.645,-6.527 m 15.754,-7.2 c -3.726,1.75 -7.33,3.41 -10.815,4.99 -0.779,2.232 -1.412,4.466 -1.993,6.686 3.269,-1.47 6.652,-3.039 10.172,-4.692 0.796,-2.327 1.688,-4.651 2.636,-6.984 m 16.335,-7.828 c -3.275,1.602 -6.488,3.146 -9.61,4.641 -1.04,2.381 -2.041,4.758 -2.957,7.137 2.995,-1.437 6.074,-2.924 9.242,-4.467 1.047,-2.438 2.186,-4.876 3.325,-7.311 m 16.556,-8.185 c -2.744,1.372 -5.443,2.721 -8.104,4.033 -1.192,2.471 -2.439,4.939 -3.561,7.426 2.591,-1.293 5.25,-2.607 7.947,-3.958 1.174,-2.515 2.497,-5.009 3.718,-7.501 m 16.442,-8.309 c -2.167,1.098 -4.295,2.196 -6.429,3.267 -1.236,2.501 -2.605,5.018 -3.822,7.552 2.109,-1.069 4.238,-2.161 6.408,-3.257 1.235,-2.537 2.627,-5.055 3.843,-7.562 m 16.047,-8.238 c -1.598,0.807 -3.131,1.633 -4.709,2.43 -1.282,2.496 -2.459,4.994 -3.787,7.53 1.578,-0.81 3.164,-1.636 4.764,-2.458 1.317,-2.526 2.47,-5.02 3.732,-7.502 m 15.44,-8.02 c -1.019,0.532 -2.031,1.06 -3.045,1.588 -1.187,2.426 -2.241,4.892 -3.505,7.379 1.032,-0.543 2.078,-1.084 3.119,-1.628 1.24,-2.475 2.292,-4.919 3.431,-7.339 m 14.696,-7.699 c -0.5,0.268 -1.001,0.528 -1.502,0.789 -1.009,2.336 -1.936,4.707 -3.04,7.125 0.512,-0.273 1.024,-0.547 1.554,-0.818 1.102,-2.401 2.014,-4.764 2.988,-7.096 m -122.764,48.664 c -4.994,2.056 -9.794,3.922 -14.401,5.612 -0.418,1.661 -0.738,3.308 -0.945,4.933 4.339,-1.558 8.863,-3.304 13.604,-5.228 0.474,-1.762 1.105,-3.535 1.742,-5.317 m 16.924,-7.271 c -4.542,2.031 -8.938,3.939 -13.191,5.72 -0.684,1.811 -1.376,3.614 -1.919,5.403 4.064,-1.695 8.285,-3.515 12.663,-5.467 0.79,-1.881 1.55,-3.764 2.447,-5.656 m 17.177,-7.887 c -4.006,1.879 -7.91,3.691 -11.715,5.425 -0.939,1.919 -1.774,3.826 -2.618,5.739 3.704,-1.682 7.518,-3.445 11.435,-5.289 0.95,-1.961 1.882,-3.919 2.898,-5.875 m 17.121,-8.208 c -3.382,1.651 -6.72,3.259 -9.994,4.826 -1.037,1.973 -2.017,3.952 -3.01,5.931 3.24,-1.546 6.534,-3.148 9.905,-4.785 1.023,-2 2.055,-3.988 3.099,-5.972 m 16.753,-8.27 c -2.747,1.359 -5.444,2.712 -8.131,4.039 -1.031,1.982 -2.077,3.974 -3.113,5.974 2.697,-1.328 5.417,-2.681 8.169,-4.062 1.025,-1.996 2.063,-3.985 3.075,-5.951 m 16.129,-8.125 c -2.092,1.062 -4.186,2.119 -6.251,3.165 -0.948,1.946 -1.968,3.913 -2.964,5.886 2.105,-1.063 4.225,-2.139 6.356,-3.225 0.961,-1.957 1.959,-3.903 2.859,-5.826 m 15.325,-7.834 c -1.493,0.762 -2.978,1.528 -4.458,2.289 -0.819,1.868 -1.741,3.775 -2.62,5.691 1.523,-0.779 3.044,-1.571 4.581,-2.357 0.822,-1.902 1.738,-3.776 2.497,-5.623 m 14.416,-7.442 c -0.939,0.489 -1.884,0.973 -2.82,1.461 -0.624,1.772 -1.392,3.598 -2.135,5.415 0.977,-0.5 1.927,-1.019 2.921,-1.518 0.68,-1.809 1.455,-3.604 2.034,-5.358 m 13.46,-6.993 c -0.449,0.235 -0.917,0.476 -1.365,0.71 -0.415,1.656 -1.037,3.365 -1.562,5.084 0.476,-0.246 0.947,-0.498 1.424,-0.746 0.498,-1.709 1.132,-3.401 1.503,-5.048 m -120.675,47.554 c -5.444,2.257 -10.702,4.351 -15.79,6.267 -0.698,1.44 -1.358,2.869 -1.964,4.293 4.98,-1.867 10.141,-3.911 15.488,-6.13 0.702,-1.473 1.493,-2.954 2.266,-4.43 m 17.965,-7.761 c -4.764,2.132 -9.419,4.151 -13.947,6.075 -0.784,1.484 -1.6,2.975 -2.324,4.457 4.488,-1.889 9.075,-3.908 13.817,-6.021 0.76,-1.504 1.654,-3.014 2.454,-4.511 m 17.595,-8.064 c -4.042,1.897 -8.028,3.731 -11.932,5.511 -0.872,1.507 -1.62,3.007 -2.475,4.518 3.907,-1.777 7.885,-3.625 11.946,-5.529 0.851,-1.508 1.608,-3.003 2.461,-4.5 m 16.951,-8.077 c -3.301,1.606 -6.585,3.173 -9.827,4.714 -0.834,1.483 -1.579,2.971 -2.416,4.471 3.267,-1.562 6.588,-3.153 9.935,-4.781 0.811,-1.477 1.525,-2.945 2.308,-4.404 m 16.088,-7.872 c -2.607,1.283 -5.186,2.553 -7.75,3.813 -0.734,1.43 -1.4,2.878 -2.176,4.324 2.627,-1.281 5.238,-2.594 7.903,-3.904 0.715,-1.424 1.359,-2.831 2.023,-4.233 m 15.085,-7.513 c -1.937,0.974 -3.872,1.939 -5.804,2.903 -0.578,1.355 -1.16,2.718 -1.8,4.101 1.98,-0.992 3.965,-1.997 5.962,-2.999 0.587,-1.351 1.128,-2.68 1.642,-4.005 m 14.014,-7.064 c -1.358,0.682 -2.706,1.364 -4.048,2.046 -0.42,1.257 -0.86,2.53 -1.337,3.825 1.396,-0.709 2.785,-1.416 4.186,-2.128 0.439,-1.265 0.838,-2.511 1.199,-3.743 m 12.948,-6.573 c -0.843,0.426 -1.69,0.847 -2.516,1.279 -0.239,1.151 -0.506,2.328 -0.825,3.52 0.861,-0.446 1.752,-0.887 2.612,-1.338 0.295,-1.17 0.515,-2.331 0.729,-3.461 m 11.921,-6.07 c -0.385,0.203 -0.82,0.406 -1.204,0.611 -0.029,1.044 -0.175,2.113 -0.3,3.201 0.409,-0.213 0.844,-0.428 1.252,-0.643 0.115,-1.08 0.2,-2.14 0.252,-3.169 m -113.662,43.532 c -5.487,2.253 -10.835,4.346 -16.018,6.285 -0.661,1.065 -1.313,2.132 -1.952,3.198 5.2,-1.951 10.564,-4.066 16.077,-6.341 0.608,-1.051 1.27,-2.098 1.893,-3.142 m 17.76,-7.555 c -4.666,2.047 -9.244,4.019 -13.743,5.894 -0.606,1.037 -1.264,2.081 -1.868,3.124 4.533,-1.899 9.155,-3.892 13.863,-5.978 0.563,-1.013 1.19,-2.037 1.748,-3.04 m 16.89,-7.598 c -3.858,1.755 -7.643,3.488 -11.4,5.166 -0.528,0.99 -1.143,1.999 -1.683,2.999 3.814,-1.705 7.647,-3.476 11.562,-5.269 0.475,-0.969 1.069,-1.939 1.521,-2.896 m 15.821,-7.379 c -3.058,1.445 -6.099,2.873 -9.121,4.281 -0.405,0.93 -0.971,1.879 -1.404,2.822 3.084,-1.44 6.173,-2.91 9.302,-4.392 0.46,-0.92 0.787,-1.809 1.223,-2.711 m 14.654,-7.002 c -2.355,1.129 -4.665,2.259 -7.018,3.369 -0.383,0.863 -0.638,1.728 -1.053,2.608 2.392,-1.143 4.784,-2.306 7.188,-3.473 0.361,-0.846 0.559,-1.674 0.883,-2.504 m 13.461,-6.529 c -1.724,0.839 -3.431,1.673 -5.149,2.506 -0.23,0.79 -0.386,1.565 -0.666,2.37 1.762,-0.858 3.52,-1.728 5.292,-2.593 0.242,-0.774 0.316,-1.53 0.523,-2.283 m 12.309,-6.021 c -1.184,0.575 -2.358,1.161 -3.54,1.735 -0.099,0.703 -0.144,1.394 -0.266,2.123 1.218,-0.597 2.422,-1.209 3.646,-1.801 0.118,-0.703 0.08,-1.378 0.16,-2.057 m 11.235,-5.517 c -0.722,0.358 -1.436,0.719 -2.176,1.069 0.034,0.621 0.146,1.234 0.123,1.88 0.74,-0.375 1.505,-0.742 2.245,-1.113 -0.005,-0.631 -0.152,-1.228 -0.192,-1.836 m 10.263,-5.035 c -0.353,0.17 -0.681,0.334 -1.033,0.506 0.175,0.535 0.418,1.07 0.491,1.647 0.37,-0.174 0.712,-0.356 1.066,-0.528 -0.108,-0.565 -0.375,-1.086 -0.524,-1.625 m -103.082,37.262 c -5.118,2.001 -10.129,3.854 -14.995,5.568 -0.364,0.553 -0.718,1.113 -1.083,1.669 4.917,-1.755 9.981,-3.64 15.156,-5.677 0.309,-0.519 0.63,-1.041 0.922,-1.56 m 16.33,-6.621 c -4.25,1.791 -8.462,3.506 -12.606,5.154 -0.283,0.507 -0.59,1.021 -0.88,1.533 4.193,-1.68 8.459,-3.424 12.763,-5.254 0.243,-0.472 0.499,-0.96 0.723,-1.433 m 15.196,-6.529 c -3.428,1.503 -6.839,2.98 -10.221,4.424 -0.206,0.456 -0.445,0.929 -0.656,1.392 3.429,-1.475 6.896,-2.977 10.367,-4.516 0.161,-0.431 0.373,-0.87 0.51,-1.3 m 13.956,-6.217 c -2.68,1.208 -5.35,2.404 -8.013,3.591 -0.11,0.408 -0.293,0.83 -0.419,1.243 2.717,-1.209 5.412,-2.438 8.142,-3.673 0.075,-0.386 0.216,-0.784 0.29,-1.161 m 12.715,-5.793 c -2.007,0.934 -4.062,1.851 -6.066,2.776 -0.024,0.354 -0.13,0.731 -0.181,1.092 2.045,-0.943 4.126,-1.889 6.171,-2.842 -0.018,-0.339 0.094,-0.694 0.076,-1.026 m 11.535,-5.323 c -1.483,0.678 -2.921,1.356 -4.399,2.036 0.052,0.303 0.017,0.632 0.052,0.945 1.505,-0.692 2.97,-1.391 4.478,-2.086 -0.062,-0.296 -0.02,-0.618 -0.131,-0.895 m 10.465,-4.855 c -1.014,0.464 -1.99,0.93 -3.003,1.394 0.127,0.258 0.152,0.541 0.267,0.808 1.02,-0.476 2.039,-0.955 3.058,-1.431 -0.153,-0.244 -0.206,-0.509 -0.322,-0.771 m 9.514,-4.415 c -0.597,0.29 -1.234,0.569 -1.841,0.852 0.192,0.219 0.281,0.454 0.462,0.682 0.626,-0.289 1.261,-0.58 1.875,-0.875 -0.203,-0.212 -0.288,-0.451 -0.496,-0.659 m 8.111,-3.746 c -0.099,0.042 -0.195,0.093 -0.299,0.135 0.258,0.175 0.385,0.386 0.637,0.567 0.142,-0.065 0.275,-0.125 0.407,-0.192 -0.248,-0.169 -0.481,-0.362 -0.745,-0.51 m -90.668,29.85 c -4.454,1.549 -8.809,3.02 -13.053,4.313 0,0.045 -0.044,0.078 -0.064,0.119 4.252,-1.297 8.612,-2.768 13.071,-4.325 0.012,-0.037 0.026,-0.073 0.046,-0.107 m 14.075,-5.182 c -3.654,1.397 -7.27,2.752 -10.85,4.037 -0.007,0.036 -0.023,0.071 -0.041,0.102 3.588,-1.285 7.207,-2.646 10.867,-4.047 0.011,-0.029 0.031,-0.062 0.024,-0.092 m 12.944,-5.103 c -2.912,1.171 -5.802,2.328 -8.691,3.455 0.007,0.03 -0.001,0.065 -0.017,0.09 2.895,-1.128 5.785,-2.291 8.704,-3.464 0.009,-0.024 0.009,-0.054 0.004,-0.081 m 11.766,-4.828 c -2.237,0.936 -4.508,1.863 -6.745,2.785 -0.008,0.024 -0.015,0.061 0.005,0.076 2.238,-0.921 4.514,-1.853 6.756,-2.794 -0.011,-0.02 -0.016,-0.044 -0.016,-0.067 m 10.649,-4.475 c -1.685,0.715 -3.395,1.43 -5.075,2.142 0,0.023 0.019,0.04 0.025,0.062 1.681,-0.717 3.395,-1.427 5.083,-2.147 -0.021,-0.011 -0.027,-0.035 -0.033,-0.057 m 9.637,-4.099 c -1.244,0.522 -2.429,1.044 -3.674,1.566 0.019,0.012 0.036,0.028 0.042,0.051 1.249,-0.523 2.435,-1.045 3.68,-1.57 -0.021,-0.011 -0.048,-0.024 -0.048,-0.047 m 8.753,-3.738 c -0.847,0.352 -1.661,0.719 -2.514,1.074 0.012,0.022 0.037,0.026 0.057,0.039 0.847,-0.361 1.681,-0.713 2.519,-1.075 -0.025,-0.008 -0.035,-0.036 -0.062,-0.038 m 7.995,-3.409 c -0.514,0.22 -1.044,0.44 -1.55,0.661 0.027,0.007 0.044,0.026 0.071,0.031 0.517,-0.219 1.037,-0.444 1.554,-0.662 0,0 -0.046,-0.021 -0.075,-0.03 M 385.716,316.08 c 0.677,-0.303 1.45,-0.723 2.37,-1.224 0,0 0.132,0.203 0.369,0.558 0.121,-0.069 0.193,-0.108 0.193,-0.108 1.827,2.772 3.748,5.556 5.848,8.516 0,0 -0.55,0.851 -0.482,1.11 -2.969,-3.164 -8.298,-8.852 -8.298,-8.852 m 11.764,5.055 c -1.085,0.806 -1.923,1.553 -2.553,2.198 -1.883,-2.929 -3.699,-5.809 -5.283,-8.583 1.268,-0.718 2.746,-1.521 4.408,-2.464 0.983,2.893 2.143,5.843 3.428,8.849 m 5.63,-3.862 c -1.543,0.983 -2.913,1.899 -4.114,2.751 -1.053,-3.045 -1.965,-6.028 -2.719,-8.971 1.689,-0.928 3.538,-1.931 5.538,-3.03 0.304,3.051 0.698,6.116 1.295,9.25 m 8.058,-4.889 c -1.78,1.047 -3.445,2.04 -4.993,2.978 -0.326,-3.196 -0.459,-6.312 -0.488,-9.431 1.911,-1.016 3.917,-2.104 6.051,-3.24 -0.381,3.178 -0.484,6.444 -0.57,9.693 m 10.172,-5.781 c -1.808,1.021 -3.556,1.985 -5.217,2.929 0.368,-3.327 0.794,-6.658 1.418,-9.923 1.917,-1.009 3.9,-2.062 5.961,-3.15 -0.859,3.343 -1.552,6.739 -2.162,10.144 m 11.926,-6.536 c -1.671,0.9 -3.289,1.787 -4.872,2.649 0.894,-3.493 1.877,-6.968 2.991,-10.403 1.751,-0.91 3.525,-1.85 5.352,-2.811 -1.27,3.488 -2.405,7.018 -3.471,10.565 m 13.304,-7.144 c -1.385,0.733 -2.741,1.456 -4.072,2.177 1.319,-3.641 2.754,-7.24 4.22,-10.829 1.433,-0.746 2.863,-1.512 4.345,-2.275 -1.553,3.619 -3.078,7.252 -4.493,10.927 m 14.32,-7.61 c -1.005,0.505 -1.963,1.043 -2.942,1.558 1.638,-3.754 3.384,-7.461 5.106,-11.16 1.026,-0.523 2.027,-1.073 3.065,-1.609 -1.753,3.716 -3.547,7.439 -5.229,11.211 m 14.994,-7.935 c -0.52,0.29 -1.068,0.555 -1.593,0.841 1.846,-3.83 3.789,-7.614 5.653,-11.383 0.548,-0.276 1.079,-0.577 1.63,-0.857 -1.884,3.767 -3.836,7.56 -5.69,11.399 m -71.113,60.833 c 0.773,0.767 1.927,1.229 3.22,1.537 -2.858,-3.206 -5.655,-6.21 -8.382,-9.04 -0.575,-0.196 -1.081,-0.651 -1.069,-1.252 2.019,2.812 4.084,5.667 6.231,8.755 m -0.647,-2.788 c -0.23,0.833 -0.142,1.657 0.226,2.256 -1.95,-3.007 -3.918,-5.947 -5.731,-8.705 0.191,-0.638 0.696,-1.351 1.408,-2.147 1.274,2.767 2.675,5.645 4.097,8.596 m 2.435,-3.725 c -0.868,0.907 -1.533,1.803 -1.982,2.634 -1.22,-2.942 -2.403,-5.806 -3.473,-8.582 0.905,-0.819 1.977,-1.709 3.233,-2.652 0.666,2.805 1.398,5.663 2.222,8.6 m 5.237,-4.568 c -1.253,0.97 -2.401,1.868 -3.387,2.772 -0.598,-2.947 -1.077,-5.81 -1.509,-8.643 1.315,-0.916 2.768,-1.858 4.331,-2.862 0.123,2.877 0.274,5.759 0.565,8.733 m 7.706,-5.341 c -1.437,0.928 -2.787,1.831 -4.056,2.705 -0.046,-3.008 0.077,-5.915 0.204,-8.837 1.499,-0.91 3.084,-1.845 4.744,-2.82 -0.349,2.967 -0.714,5.906 -0.892,8.952 m 9.815,-6.042 c -1.408,0.836 -2.783,1.64 -4.087,2.452 0.507,-3.052 1.013,-6.124 1.679,-9.107 1.476,-0.827 2.983,-1.694 4.556,-2.56 -0.831,3.02 -1.466,6.13 -2.148,9.215 m 11.56,-6.657 c -1.23,0.681 -2.418,1.37 -3.593,2.035 0.927,-3.153 1.84,-6.315 2.907,-9.407 1.277,-0.691 2.56,-1.403 3.883,-2.115 -1.15,3.123 -2.16,6.311 -3.197,9.487 m 12.947,-7.172 c -0.915,0.494 -1.805,0.991 -2.694,1.477 1.27,-3.248 2.534,-6.491 3.885,-9.694 0.945,-0.497 1.885,-1.013 2.846,-1.525 -1.409,3.215 -2.711,6.479 -4.037,9.742 m 13.994,-7.582 c -0.51,0.264 -1.002,0.547 -1.506,0.81 1.522,-3.332 3.036,-6.65 4.608,-9.933 0.502,-0.291 1.044,-0.551 1.562,-0.831 -1.603,3.284 -3.125,6.614 -4.664,9.954 m -51.303,61.915 c 2.049,1.211 4.441,2.183 7.039,3.009 -2.586,-3.66 -5.188,-7.083 -7.773,-10.299 -1.938,-0.495 -3.725,-1.17 -5.148,-2.104 1.963,2.995 3.911,6.07 5.882,9.394 m -4.34,-3.923 c 0.691,1.171 1.781,2.196 3.042,3.089 -1.835,-3.252 -3.626,-6.26 -5.452,-9.207 -0.806,-0.71 -1.44,-1.568 -1.663,-2.563 1.314,2.762 2.712,5.698 4.073,8.681 m -0.757,-4.366 c -0.194,1.073 -0.154,2.08 0.146,3.022 -1.198,-2.92 -2.405,-5.795 -3.554,-8.516 0.053,-0.857 0.361,-1.813 0.889,-2.756 0.802,2.664 1.663,5.427 2.519,8.25 m 2.415,-4.824 c -0.741,0.984 -1.351,1.933 -1.775,2.881 -0.673,-2.781 -1.34,-5.493 -1.929,-8.139 0.702,-0.908 1.565,-1.824 2.56,-2.78 0.332,2.629 0.721,5.296 1.144,8.038 m 5.195,-5.32 c -1.049,0.903 -2.016,1.773 -2.864,2.666 -0.217,-2.725 -0.361,-5.371 -0.501,-7.995 1.056,-0.874 2.213,-1.744 3.447,-2.656 -0.063,2.631 -0.116,5.266 -0.082,7.985 m 7.601,-5.835 c -1.13,0.81 -2.233,1.563 -3.251,2.355 0.178,-2.726 0.485,-5.359 0.759,-8.009 1.158,-0.795 2.401,-1.559 3.662,-2.387 -0.417,2.665 -0.844,5.306 -1.17,8.041 m 9.643,-6.344 c -1.055,0.638 -2.055,1.31 -3.055,1.935 0.545,-2.761 1.222,-5.422 1.852,-8.121 1.093,-0.633 2.179,-1.32 3.325,-1.976 -0.717,2.715 -1.496,5.386 -2.122,8.162 m 11.34,-6.819 c -0.82,0.46 -1.602,0.951 -2.398,1.406 0.856,-2.811 1.863,-5.52 2.778,-8.285 0.837,-0.476 1.687,-0.956 2.55,-1.438 -1.06,2.72 -1.936,5.55 -2.93,8.317 m 12.703,-7.238 c -0.465,0.256 -0.928,0.519 -1.386,0.776 1.196,-2.818 2.287,-5.681 3.527,-8.46 0.482,-0.263 0.958,-0.536 1.448,-0.793 -1.277,2.776 -2.375,5.651 -3.589,8.477 m 13.756,-7.587 c -0.017,0.036 -0.11,0.027 -0.123,0.067 1.381,-2.882 2.681,-5.781 4.094,-8.623 -0.061,-0.014 0.067,-0.087 0.127,-0.067 -1.428,2.835 -2.708,5.744 -4.098,8.623 m -45.152,76.014 c 3.312,2.235 7.014,4.359 10.987,6.405 -2.097,-4.164 -4.262,-8.092 -6.445,-11.814 -3.426,-1.449 -6.612,-3.032 -9.431,-4.772 1.665,3.26 3.277,6.604 4.889,10.181 m -7.993,-6.651 c 1.649,1.787 3.618,3.48 5.817,5.113 -1.483,-3.467 -3.014,-6.671 -4.546,-9.845 -1.839,-1.275 -3.455,-2.64 -4.739,-4.14 1.153,2.804 2.343,5.847 3.468,8.872 m -3.843,-6.15 c 0.484,1.445 1.242,2.819 2.199,4.148 -1.007,-2.91 -2.063,-5.835 -3.068,-8.554 -0.718,-1.116 -1.195,-2.325 -1.408,-3.597 0.75,2.564 1.526,5.284 2.277,8.003 m -0.3,-5.917 c -0.261,1.152 -0.352,2.335 -0.224,3.449 -0.615,-2.628 -1.22,-5.254 -1.83,-7.743 0.111,-1.028 0.374,-2.101 0.823,-3.161 0.397,2.414 0.828,4.925 1.231,7.455 m 2.757,-5.915 c -0.669,0.975 -1.247,1.942 -1.703,2.905 -0.27,-2.463 -0.511,-4.901 -0.738,-7.267 0.622,-0.912 1.334,-1.838 2.152,-2.771 0.082,2.332 0.191,4.715 0.289,7.133 m 5.401,-6.079 c -0.863,0.82 -1.674,1.6 -2.413,2.417 0.063,-2.379 0.141,-4.714 0.24,-7.02 0.845,-0.798 1.779,-1.558 2.739,-2.369 -0.214,2.296 -0.4,4.611 -0.566,6.972 m 7.678,-6.348 c -0.862,0.641 -1.685,1.3 -2.497,1.918 0.333,-2.348 0.729,-4.641 1.117,-6.929 0.879,-0.627 1.775,-1.284 2.716,-1.913 -0.446,2.293 -0.906,4.583 -1.336,6.924 m 9.617,-6.673 c -0.717,0.433 -1.379,0.94 -2.072,1.368 0.597,-2.349 1.254,-4.636 1.891,-6.939 0.739,-0.429 1.44,-0.938 2.201,-1.377 -0.68,2.307 -1.368,4.6 -2.02,6.948 m 11.236,-7.013 c -0.417,0.25 -0.833,0.5 -1.244,0.751 0.818,-2.369 1.71,-4.674 2.553,-7.008 0.431,-0.255 0.865,-0.503 1.302,-0.758 -0.857,2.338 -1.774,4.644 -2.611,7.015 m 12.558,-7.336 c -0.019,0.04 -0.091,0.027 -0.115,0.065 0.991,-2.403 2.064,-4.742 3.1,-7.102 0.006,-0.043 0.097,-0.027 0.118,-0.065 -1.023,2.366 -2.123,4.695 -3.103,7.102 m -25.271,90.448 c 4.514,4.248 9.471,8.584 14.799,13.03 -1.423,-4.569 -2.91,-8.946 -4.445,-13.141 -4.939,-3.567 -9.515,-7.086 -13.712,-10.614 1.178,3.464 2.283,6.991 3.358,10.725 M 429.395,400.51 c 2.472,2.96 5.301,5.967 8.366,8.978 -0.965,-3.576 -2.043,-6.916 -3.125,-10.238 -2.813,-2.504 -5.391,-5.044 -7.652,-7.585 0.847,2.899 1.643,5.755 2.411,8.845 m -6.636,-9.627 c 1.132,2.11 2.486,4.27 4.054,6.359 -0.692,-2.931 -1.402,-5.625 -2.148,-8.39 -1.405,-1.817 -2.587,-3.691 -3.535,-5.562 0.585,2.403 1.111,5.053 1.629,7.593 m -2.758,-8.205 c 0.21,1.552 0.604,3.137 1.182,4.667 -0.437,-2.407 -0.883,-4.91 -1.334,-7.206 -0.434,-1.385 -0.722,-2.809 -0.786,-4.224 0.31,2.168 0.634,4.502 0.938,6.763 m 0.519,-7.374 c -0.329,1.172 -0.546,2.361 -0.632,3.532 -0.195,-2.159 -0.41,-4.378 -0.608,-6.457 0.193,-1.097 0.506,-2.198 0.937,-3.297 0.088,2.011 0.223,4.14 0.303,6.222 m 3.338,-6.958 c -0.61,0.899 -1.159,1.79 -1.623,2.704 0.018,-2.004 0.043,-4.049 0.061,-5.995 0.562,-0.86 1.177,-1.712 1.85,-2.591 -0.116,1.912 -0.184,3.916 -0.288,5.882 m 5.783,-6.819 c -0.679,0.693 -1.333,1.334 -1.953,2.023 0.225,-1.916 0.461,-3.856 0.679,-5.731 0.671,-0.644 1.373,-1.329 2.109,-1.976 -0.3,1.858 -0.539,3.787 -0.835,5.684 m 7.892,-6.864 c -0.592,0.456 -1.172,0.932 -1.741,1.388 0.409,-1.873 0.821,-3.758 1.244,-5.597 0.609,-0.438 1.206,-0.933 1.839,-1.375 -0.476,1.829 -0.893,3.717 -1.342,5.584 m 9.703,-7.019 c -0.356,0.268 -0.732,0.497 -1.093,0.745 0.582,-1.857 1.156,-3.722 1.752,-5.552 0.376,-0.248 0.756,-0.494 1.138,-0.744 -0.626,1.824 -1.21,3.691 -1.797,5.551 m 11.232,-7.23 c -0.018,0.045 -0.116,0.016 -0.104,0.064 0.728,-1.86 1.456,-3.723 2.195,-5.561 0.017,-0.045 0.085,-0.023 0.107,-0.065 -0.752,1.834 -1.458,3.704 -2.198,5.562 m -8.475,117.062 c 5.446,7.906 11.342,16.257 17.708,25.142 -0.603,-4.582 -1.244,-9.038 -1.95,-13.364 -6.189,-7.794 -11.976,-15.114 -17.264,-22.111 0.543,3.381 1.05,6.777 1.506,10.333 m -13.884,-21.014 c 3.106,5.042 6.586,10.208 10.273,15.733 -0.394,-3.36 -0.881,-6.551 -1.411,-9.743 -3.597,-4.927 -6.96,-9.512 -9.974,-14.077 0.414,2.674 0.769,5.293 1.112,8.087 m -8.767,-15.623 c 1.602,3.257 3.436,6.754 5.478,10.168 -0.321,-2.613 -0.663,-5.04 -1,-7.553 -1.983,-3.107 -3.704,-6.265 -5.244,-9.243 0.264,2.221 0.53,4.326 0.766,6.628 m -4.713,-12.191 c 0.591,2.28 1.389,4.476 2.31,6.802 -0.171,-2.152 -0.409,-4.1 -0.626,-6.179 -0.873,-2.137 -1.572,-4.171 -2.115,-6.283 0.146,1.915 0.316,3.684 0.431,5.66 m -1.338,-10.028 c -0.046,1.547 0.066,3.124 0.267,4.695 -0.076,-1.852 -0.18,-3.495 -0.261,-5.296 -0.144,-1.465 -0.197,-2.963 -0.105,-4.412 0.036,1.711 0.065,3.258 0.099,5.013 m 1.559,-8.7 c -0.38,1.082 -0.7,2.18 -0.933,3.301 0.029,-1.533 0.065,-3.231 0.101,-4.729 0.294,-1.067 0.627,-2.103 1.059,-3.152 -0.098,1.453 -0.152,3.092 -0.227,4.58 m 4.077,-7.93 c -0.517,0.803 -1,1.509 -1.455,2.3 0.169,-1.417 0.281,-2.978 0.454,-4.368 0.47,-0.772 1.005,-1.451 1.549,-2.227 -0.193,1.37 -0.351,2.901 -0.548,4.295 m 6.282,-7.527 c -0.489,0.504 -0.967,0.986 -1.425,1.493 0.291,-1.343 0.501,-2.824 0.795,-4.146 0.469,-0.523 0.983,-0.96 1.487,-1.464 -0.293,1.32 -0.546,2.779 -0.857,4.117 m 8.211,-7.371 c -0.319,0.253 -0.633,0.515 -0.943,0.771 0.395,-1.307 0.724,-2.728 1.118,-4.022 0.32,-0.254 0.645,-0.498 0.972,-0.762 -0.415,1.286 -0.764,2.702 -1.147,4.013 m 9.88,-7.371 c -0.014,0.052 -0.067,0.017 -0.093,0.065 0.505,-1.286 0.916,-2.684 1.414,-3.961 0.015,-0.051 0.073,-0.015 0.095,-0.064 -0.504,1.274 -0.909,2.677 -1.416,3.96 m 1.791,161.433 c 5.615,14.135 11.486,29.667 17.847,46.507 0.105,-3.581 0.246,-7.108 0.328,-10.587 -6.389,-15.808 -12.47,-30.363 -18.059,-43.681 -0.04,2.569 -0.059,5.125 -0.116,7.761 m -14.323,-36.34 c 3.352,8.361 6.875,17.411 10.645,26.985 0.074,-2.46 0.058,-4.832 0.081,-7.232 -3.803,-9.036 -7.417,-17.534 -10.721,-25.53 0.007,1.931 0.029,3.803 -0.005,5.777 m -9.538,-25.355 c 1.798,5.229 3.86,10.599 6.036,16.328 0.017,-1.823 0.016,-3.538 -0.007,-5.322 -2.172,-5.435 -4.25,-10.567 -6.038,-15.542 0,1.531 -0.002,2.976 0.009,4.536 m -5.734,-18.584 c 0.84,3.306 1.832,6.702 2.934,10.226 0.028,-1.436 0.004,-2.753 0.004,-4.163 -1.126,-3.36 -2.071,-6.598 -2.903,-9.792 -0.006,1.27 -0.018,2.438 -0.035,3.729 m -2.532,-14.317 c 0.169,2.132 0.466,4.373 0.868,6.583 0.022,-1.19 0.057,-2.254 0.073,-3.425 -0.399,-2.12 -0.616,-4.294 -0.822,-6.344 -0.029,1.093 -0.066,2.077 -0.119,3.186 m 0.254,-11.601 c -0.197,1.416 -0.34,2.873 -0.41,4.308 0.047,-1.03 0.139,-1.93 0.181,-2.946 0.085,-1.402 0.235,-2.795 0.453,-4.18 -0.085,0.973 -0.131,1.833 -0.224,2.818 m 2.718,-9.882 c -0.375,0.945 -0.731,1.844 -1.048,2.799 0.096,-0.925 0.193,-1.721 0.309,-2.631 0.306,-0.948 0.695,-1.805 1.084,-2.734 -0.105,0.893 -0.216,1.666 -0.345,2.566 m 4.912,-8.819 c -0.393,0.609 -0.774,1.121 -1.151,1.71 0.155,-0.853 0.297,-1.58 0.448,-2.426 0.369,-0.592 0.761,-1.088 1.177,-1.681 -0.139,0.84 -0.31,1.554 -0.474,2.397 m 6.869,-8.193 c -0.278,0.268 -0.544,0.561 -0.805,0.838 0.186,-0.81 0.416,-1.487 0.591,-2.294 0.268,-0.274 0.544,-0.555 0.818,-0.829 -0.182,0.803 -0.411,1.478 -0.604,2.285 m 8.604,-7.861 c -0.015,0.059 -0.073,0.007 -0.083,0.067 0.221,-0.784 0.503,-1.436 0.731,-2.214 0.01,-0.059 0.083,-0.006 0.083,-0.067 -0.223,0.78 -0.494,1.434 -0.731,2.214 m 2.527,248.018 c -0.891,-6.126 -1.818,-12.091 -2.693,-17.912 -0.07,0.305 -0.121,0.613 -0.157,0.925 0.83,5.666 1.727,11.467 2.589,17.421 0.056,-0.16 0.154,-0.303 0.261,-0.434 m -13.124,-77.999 c 2.562,13.88 5.128,28.717 7.759,44.991 0.05,-0.286 0.096,-0.568 0.14,-0.855 -2.595,-16.219 -5.279,-30.959 -7.809,-44.797 -0.034,0.222 -0.02,0.444 -0.09,0.661 m -7.661,-40.486 c 1.541,8.158 3.22,16.709 4.935,25.857 0.044,-0.203 0.041,-0.4 0.078,-0.603 -1.722,-9.051 -3.416,-17.685 -4.955,-25.754 -0.032,0.168 -0.012,0.336 -0.058,0.5 m -5.092,-28.333 c 0.802,4.962 1.691,10.055 2.672,15.43 0.038,-0.152 0.039,-0.298 0.05,-0.454 -0.962,-5.36 -1.863,-10.455 -2.679,-15.373 -0.011,0.137 -0.016,0.264 -0.043,0.397 m -2.62,-20.815 c 0.265,3.098 0.561,6.174 0.98,9.445 -0.013,-0.125 0.028,-0.234 0.039,-0.359 -0.385,-3.265 -0.749,-6.321 -0.982,-9.415 0.024,0.112 0.003,0.221 -0.037,0.329 m -0.284,-16.027 c -0.099,1.923 -0.146,3.854 -0.158,5.853 0,-0.104 0.021,-0.195 0.036,-0.299 -0.005,-1.972 0.059,-3.916 0.159,-5.836 -0.023,0.097 0.003,0.191 -0.037,0.282 m 1.905,-12.929 c -0.317,1.203 -0.544,2.357 -0.785,3.589 0.006,-0.091 0.026,-0.168 0.04,-0.258 0.228,-1.254 0.506,-2.372 0.786,-3.581 0.023,0.085 -0.035,0.162 -0.041,0.25 m 3.933,-10.918 c -0.341,0.723 -0.658,1.349 -0.944,2.071 -0.007,-0.082 0.027,-0.151 0.046,-0.231 0.306,-0.734 0.603,-1.367 0.946,-2.067 -0.027,0.077 -0.016,0.152 -0.048,0.227 m 5.805,-9.622 c -0.231,0.332 -0.464,0.631 -0.691,0.964 0,-0.078 0.037,-0.139 0.054,-0.214 0.216,-0.339 0.463,-0.628 0.693,-0.962 -0.025,0.073 -0.056,0.135 -0.056,0.212 m 7.511,-8.812 c -0.026,0.065 -0.065,0.006 -0.073,0.075 0.013,-0.074 0.043,-0.131 0.065,-0.203 -0.023,-0.065 0.045,-0.009 0.072,-0.073 -0.017,0.071 -0.041,0.131 -0.064,0.201"
                   style="fill:url(#radialGradient3783);stroke:none"
                   id="path3785"
                   inkscape:connector-curvature="0" /></g></g></g></g></g></g></g></svg>